<?xml version="1.0" standalone="no"?>
<!DOCTYPE svg PUBLIC "-//W3C//DTD SVG 20010904//EN"
 "http://www.w3.org/TR/2001/REC-SVG-20010904/DTD/svg10.dtd">
<svg version="1.0" xmlns="http://www.w3.org/2000/svg"
 width="100.000000pt" height="100.000000pt" viewBox="0 0 100.000000 100.000000"
 preserveAspectRatio="xMidYMid meet">

<g transform="translate(0.000000,100.000000) scale(0.100000,-0.100000)"
fill="#000000" stroke="none">
<path d="M292 738 c-17 -17 -17 -329 0 -346 7 -7 38 -12 70 -12 l58 0 0 -38
c0 -21 5 -43 12 -50 8 -8 57 -12 154 -12 l142 0 7 73 c3 39 5 122 3 182 l-3
110 -67 3 -67 3 -3 47 -3 47 -145 3 c-105 2 -149 -1 -158 -10z m169 -8 l119 0
0 -40 0 -40 -68 0 c-40 0 -73 -5 -80 -12 -7 -7 -12 -44 -12 -94 l0 -82 -65 -4
-65 -3 0 131 c0 132 7 161 38 149 8 -3 67 -5 133 -5z m267 -232 l3 -137 -151
-3 -150 -3 0 131 c0 89 4 134 12 142 9 9 51 12 148 10 l135 -3 3 -137z m-308
-78 c0 -30 -1 -30 -54 -30 -35 0 -58 5 -66 15 -22 26 5 45 66 45 53 0 54 0 54
-30z m290 -100 l0 -30 -129 0 c-102 0 -131 3 -141 15 -10 12 -10 18 0 30 10
12 39 15 141 15 l129 0 0 -30z"/>
<path d="M322 690 c0 -14 2 -19 5 -12 2 6 2 18 0 25 -3 6 -5 1 -5 -13z"/>
<path d="M324 565 c0 -55 1 -76 3 -47 2 29 2 74 0 100 -2 26 -3 2 -3 -53z"/>
<path d="M462 590 c0 -14 2 -19 5 -12 2 6 2 18 0 25 -3 6 -5 1 -5 -13z"/>
<path d="M624 563 l48 -4 -4 -35 c-2 -19 0 -30 5 -25 5 5 7 21 5 37 -3 27 -6
29 -53 30 l-50 1 49 -4z"/>
<path d="M461 544 c0 -11 3 -14 6 -6 3 7 2 16 -1 19 -3 4 -6 -2 -5 -13z"/>
<path d="M523 528 l2 -33 58 -1 57 -1 -54 4 c-52 4 -55 6 -60 33 -6 29 -6 29
-3 -2z"/>
<path d="M463 445 c0 -44 2 -61 4 -37 2 23 2 59 0 80 -2 20 -4 1 -4 -43z"/>
</g>
</svg>
