<?xml version="1.0" standalone="no"?>
<!DOCTYPE svg PUBLIC "-//W3C//DTD SVG 20010904//EN"
 "http://www.w3.org/TR/2001/REC-SVG-20010904/DTD/svg10.dtd">
<svg version="1.0" xmlns="http://www.w3.org/2000/svg"
 width="100.000000pt" height="100.000000pt" viewBox="0 0 100.000000 100.000000"
 preserveAspectRatio="xMidYMid meet">

<g transform="translate(0.000000,100.000000) scale(0.100000,-0.100000)"
fill="#000000" stroke="none">
<path d="M375 779 l-91 -28 4 -42 c3 -22 -1 -51 -8 -64 -9 -18 -9 -27 0 -46
12 -22 13 -22 26 -4 16 22 18 41 4 50 -5 3 -10 26 -10 50 l0 43 36 -11 36 -11
-7 -46 c-4 -25 -7 -60 -8 -77 0 -18 -4 -33 -9 -33 -30 0 15 -111 60 -147 23
-19 9 -37 -47 -57 -65 -23 -81 -46 -81 -114 l0 -53 56 -26 c82 -37 196 -42
284 -11 l65 23 3 58 c4 76 -10 97 -82 121 -31 11 -60 24 -63 29 -3 4 3 18 14
30 35 40 73 103 73 120 0 10 -7 20 -15 23 -19 8 -19 48 0 64 14 11 13 14 -5
27 -12 8 -20 25 -20 42 0 24 6 29 48 42 l47 15 -95 32 c-52 18 -102 32 -110
31 -8 0 -56 -14 -105 -30z m178 0 c40 -12 75 -25 79 -28 4 -4 -27 -18 -70 -32
l-77 -26 -85 27 -85 26 75 26 c41 15 79 27 83 27 5 1 41 -9 80 -20z m-112 -84
c39 -14 48 -14 88 0 55 19 51 19 51 -5 0 -26 -36 -40 -100 -40 -64 0 -100 14
-100 40 0 24 5 24 61 5z m-131 -59 c0 -15 -14 -35 -21 -30 -15 9 -10 34 6 34
8 0 15 -2 15 -4z m124 -11 c13 -9 28 -15 32 -14 16 4 44 -13 38 -22 -3 -5 10
-8 28 -8 18 1 25 3 16 6 -10 2 -18 8 -18 13 0 5 10 6 23 1 16 -6 23 -18 27
-47 4 -28 7 -34 12 -21 9 21 28 23 28 1 0 -8 -4 -13 -9 -10 -5 4 -7 -3 -4 -14
3 -12 -1 -22 -11 -26 -9 -3 -16 -12 -16 -19 0 -12 -44 -55 -86 -83 -16 -11
-16 -11 5 -1 20 9 26 8 33 -5 5 -9 15 -16 22 -16 7 0 36 -9 64 -21 55 -23 62
-35 62 -111 l0 -46 -52 -19 c-81 -28 -218 -24 -283 7 -48 24 -50 26 -53 72 -4
66 9 84 74 105 36 11 59 24 63 37 5 13 10 16 15 8 4 -7 12 -12 19 -12 6 0 -5
11 -25 25 -46 31 -58 52 -58 105 0 40 18 130 27 130 2 0 14 -7 27 -15z m-67
-113 c2 -27 0 -33 -7 -22 -11 18 -13 60 -2 60 4 0 8 -17 9 -38z"/>
<path d="M423 583 c9 -2 23 -2 30 0 6 3 -1 5 -18 5 -16 0 -22 -2 -12 -5z"/>
<path d="M426 555 c-3 -9 0 -15 9 -15 16 0 20 16 6 24 -5 3 -11 -1 -15 -9z"/>
<path d="M523 555 c0 -8 4 -15 9 -15 4 0 8 7 8 15 0 8 -4 15 -8 15 -5 0 -9 -7
-9 -15z"/>
<path d="M468 453 c6 -2 18 -2 25 0 6 3 1 5 -13 5 -14 0 -19 -2 -12 -5z"/>
</g>
</svg>
