<?xml version="1.0" standalone="no"?>
<!DOCTYPE svg PUBLIC "-//W3C//DTD SVG 20010904//EN"
 "http://www.w3.org/TR/2001/REC-SVG-20010904/DTD/svg10.dtd">
<svg version="1.0" xmlns="http://www.w3.org/2000/svg"
 width="100.000000pt" height="100.000000pt" viewBox="0 0 100.000000 100.000000"
 preserveAspectRatio="xMidYMid meet">

<g transform="translate(0.000000,100.000000) scale(0.100000,-0.100000)"
fill="#000000" stroke="none">
<path d="M260 660 c-18 -18 -20 -33 -20 -155 0 -188 -20 -175 265 -175 285 0
265 -13 265 175 0 188 20 175 -265 175 -212 0 -226 -1 -245 -20z m483 -12 l22
-23 -150 -5 -150 -6 148 -2 147 -2 0 -25 0 -25 -152 -2 -153 -2 153 -3 152 -4
0 -84 c0 -129 9 -125 -255 -125 -264 0 -255 -4 -255 125 l0 85 98 2 97 2 -97
3 c-97 4 -98 4 -98 28 0 23 4 25 53 27 l52 1 -55 6 -55 6 23 23 c21 21 27 22
237 22 210 0 216 -1 238 -22z"/>
<path d="M393 613 c9 -2 25 -2 35 0 9 3 1 5 -18 5 -19 0 -27 -2 -17 -5z"/>
<path d="M290 505 l0 -25 130 0 130 0 0 25 0 25 -130 0 -130 0 0 -25z m250 0
c0 -12 -20 -15 -120 -15 -100 0 -120 3 -120 15 0 13 20 15 120 15 100 0 120
-2 120 -15z"/>
<path d="M580 505 c0 -23 4 -25 45 -25 41 0 45 2 45 25 0 23 -4 25 -45 25 -41
0 -45 -2 -45 -25z m80 0 c0 -10 -11 -15 -35 -15 -24 0 -35 5 -35 15 0 10 11
15 35 15 24 0 35 -5 35 -15z"/>
<path d="M294 446 c-3 -8 -4 -25 -2 -38 3 -20 9 -23 48 -23 45 0 45 0 45 35 0
34 -1 35 -43 38 -30 2 -44 -1 -48 -12z m81 -26 c0 -21 -5 -26 -33 -28 -22 -2
-34 2 -38 12 -12 30 4 47 38 44 28 -2 33 -7 33 -28z"/>
<path d="M478 443 c23 -2 59 -2 80 0 20 2 1 4 -43 4 -44 0 -61 -2 -37 -4z"/>
<path d="M633 443 c15 -2 37 -2 50 0 12 2 0 4 -28 4 -27 0 -38 -2 -22 -4z"/>
<path d="M492 413 c32 -2 84 -2 115 0 32 2 6 3 -57 3 -63 0 -89 -1 -58 -3z"/>
<path d="M463 383 c15 -2 39 -2 55 0 15 2 2 4 -28 4 -30 0 -43 -2 -27 -4z"/>
<path d="M578 383 c12 -2 30 -2 40 0 9 3 -1 5 -23 4 -22 0 -30 -2 -17 -4z"/>
</g>
</svg>
